<svg height="510" width="720" xmlns="http://www.w3.org/2000/svg">
<rect height="510" fill="#555" width="720"></rect>
<text fill="#7f7" font-family="Courier New" font-size="12" xml:space="preserve">
<tspan x="10" y="26">25 megabytes installed</tspan>
<tspan x="10" y="42"></tspan>
<tspan x="10" y="58">node_modules</tspan>
<tspan x="10" y="74">└─┬ react-pdf@1.6.1 </tspan>
<tspan x="10" y="90">  ├─┬ pdfjs-dist@1.8.237 </tspan>
<tspan x="10" y="106">  │ ├── node-ensure@0.0.0 </tspan>
<tspan x="10" y="122">  │ ├── UNMET PEER DEPENDENCY webpack@&gt;=0.9 &lt;2 || ^2.1.0-beta || ^2.2.0</tspan>
<tspan x="10" y="138">  │ └─┬ worker-loader@0.8.0 </tspan>
<tspan x="10" y="154">  │   └─┬ loader-utils@1.1.0 </tspan>
<tspan x="10" y="170">  │     ├── big.js@3.1.3 </tspan>
<tspan x="10" y="186">  │     ├── emojis-list@2.1.0 </tspan>
<tspan x="10" y="202">  │     └── json5@0.5.1 </tspan>
<tspan x="10" y="218">  ├─┬ react@15.5.4 </tspan>
<tspan x="10" y="234">  │ ├─┬ fbjs@0.8.12 </tspan>
<tspan x="10" y="250">  │ │ ├── core-js@1.2.7 </tspan>
<tspan x="10" y="266">  │ │ ├─┬ isomorphic-fetch@2.2.1 </tspan>
<tspan x="10" y="282">  │ │ │ ├─┬ node-fetch@1.6.3 </tspan>
<tspan x="10" y="298">  │ │ │ │ ├─┬ encoding@0.1.12 </tspan>
<tspan x="10" y="314">  │ │ │ │ │ └── iconv-lite@0.4.15 </tspan>
<tspan x="10" y="330">  │ │ │ │ └── is-stream@1.1.0 </tspan>
<tspan x="10" y="346">  │ │ │ └── whatwg-fetch@2.0.3 </tspan>
<tspan x="10" y="362">  │ │ ├─┬ promise@7.1.1 </tspan>
<tspan x="10" y="378">  │ │ │ └── asap@2.0.5 </tspan>
<tspan x="10" y="394">  │ │ ├── setimmediate@1.0.5 </tspan>
<tspan x="10" y="410">  │ │ └── ua-parser-js@0.7.12 </tspan>
<tspan x="10" y="426">  │ ├─┬ loose-envify@1.3.1 </tspan>
<tspan x="10" y="442">  │ │ └── js-tokens@3.0.1 </tspan>
<tspan x="10" y="458">  │ ├── object-assign@4.1.1 </tspan>
<tspan x="10" y="474">  │ └── prop-types@15.5.8 </tspan>
<tspan x="10" y="490">  └── react-dom@15.5.4</tspan>
</text>
</svg>
